<?xml version="1.0" standalone="no"?>
<!DOCTYPE svg PUBLIC "-//W3C//DTD SVG 20010904//EN"
 "http://www.w3.org/TR/2001/REC-SVG-20010904/DTD/svg10.dtd">
<svg version="1.0" xmlns="http://www.w3.org/2000/svg"
 width="665.000000pt" height="666.000000pt" viewBox="0 0 665.000000 666.000000"
 preserveAspectRatio="xMidYMid meet">

<g transform="translate(0.000000,666.000000) scale(0.100000,-0.100000)"
fill="#000000" stroke="none">
<path d="M3025 6640 c-793 -80 -1493 -409 -2045 -960 -535 -533 -855 -1189
-956 -1955 -25 -184 -25 -600 -1 -787 49 -379 149 -718 307 -1046 176 -363
367 -632 654 -917 517 -514 1147 -827 1886 -936 178 -26 529 -36 721 -20 836
71 1591 438 2166 1053 459 491 746 1093 855 1788 20 128 22 183 23 465 0 342
-7 417 -61 683 -100 488 -335 990 -654 1392 -101 129 -391 419 -520 521 -486
387 -1031 618 -1660 705 -136 18 -582 27 -715 14z m540 -200 c554 -46 1036
-214 1497 -522 676 -451 1158 -1170 1318 -1968 154 -763 15 -1566 -384 -2229
-448 -744 -1192 -1271 -2037 -1445 -370 -77 -773 -85 -1140 -25 -969 158
-1822 777 -2267 1646 -235 459 -344 909 -345 1423 0 242 9 354 49 580 93 518
333 1026 682 1440 98 117 318 333 432 424 218 175 548 366 810 469 429 170
930 245 1385 207z"/>
<path d="M1330 4545 l0 -445 298 0 c163 0 326 -5 362 -10 147 -23 279 -122
343 -257 29 -62 32 -76 32 -168 0 -94 -2 -105 -34 -170 -47 -95 -120 -166
-218 -213 l-78 -37 -352 -3 -353 -3 0 -509 0 -510 337 -2 336 -3 346 -615 346
-615 603 -3 c331 -1 602 0 602 3 0 3 -210 375 -467 827 l-467 821 49 41 c427
346 574 851 403 1386 -60 187 -141 320 -293 479 -202 211 -453 366 -694 427
-93 24 -99 24 -597 24 l-504 0 0 -445z"/>
<path d="M4481 4968 c-223 -574 -1034 -2686 -1034 -2694 0 -9 627 -1120 642
-1137 5 -5 1236 3132 1493 3806 l18 47 -555 0 -555 0 -9 -22z"/>
</g>
</svg>
